<svg xmlns="http://www.w3.org/2000/svg" xmlns:xlink="http://www.w3.org/1999/xlink" viewBox="0 0 987 2139.5"><defs><style>.a{fill:#171e20;}.b{fill:#2e1d87;}.c{fill:#fcfcfc;}.d{fill:#e50204;}.e{fill:#fff;}.f{fill:#2e1d86;}.g{fill:#fcfbff;}.h{fill:url(#a);}.i,.o,.p{fill:#ea5615;}.i,.n{opacity:0.5;}.j{fill:#f7ec42;}.k{fill:url(#b);}.l{fill:url(#c);}.m,.n{fill:#fff16c;}.p{opacity:0.6;}.q{fill:url(#d);}.r{fill:url(#e);}.s{fill:url(#f);}.t{fill:url(#g);}.u{fill:url(#h);}.v{fill:url(#i);}</style><linearGradient id="a" x1="2058.88" y1="3680.31" x2="2058.88" y2="3802.7" gradientTransform="translate(-3794.77 251.16) rotate(-45)" gradientUnits="userSpaceOnUse"><stop offset="0" stop-color="#f6e62e"/><stop offset="1" stop-color="#f97a1d"/></linearGradient><linearGradient id="b" x1="2041.74" y1="3663.35" x2="2041.74" y2="3692.53" xlink:href="#a"/><linearGradient id="c" x1="3589.27" y1="2762.46" x2="3589.27" y2="2788.56" gradientTransform="matrix(0.55, -0.37, 0.46, 0.68, -3004.8, 816.27)" xlink:href="#a"/><linearGradient id="d" x1="-2289.19" y1="1117.12" x2="-2289.19" y2="1239.52" gradientTransform="translate(3119.45 2217.7) rotate(45)" xlink:href="#a"/><linearGradient id="e" x1="-2306.33" y1="1100.16" x2="-2306.33" y2="1129.34" gradientTransform="translate(3119.45 2217.7) rotate(45)" xlink:href="#a"/><linearGradient id="f" x1="-3567.16" y1="728.87" x2="-3567.16" y2="754.96" gradientTransform="matrix(0.37, 0.55, -0.68, 0.46, 2554.34, 3007.67)" xlink:href="#a"/><linearGradient id="g" x1="482.9" y1="237.71" x2="482.9" y2="492.88" gradientTransform="matrix(1, 0, 0, 1, 0, 0)" xlink:href="#a"/><linearGradient id="h" x1="426.44" y1="202.35" x2="426.44" y2="263.18" gradientTransform="matrix(1, 0, 0, 1, 0, 0)" xlink:href="#a"/><linearGradient id="i" x1="258.17" y1="-1021.67" x2="258.17" y2="-967.26" gradientTransform="matrix(0.65, 0.13, -0.16, 0.81, 159, 958.19)" xlink:href="#a"/></defs><path class="a" d="M711,1650.5h-5.41c-54.86,23.93-125.32,44.37-212.09,48.5-96.52,4.6-178.67-22.92-227-43.7L0,1776.5v170l257,193H731l256-193v-170Z"/><polygon class="b" points="63 1791.5 195 1726.5 334 1819.5 251 1949.5 63 1791.5"/><polygon class="b" points="640 1819.5 813 1723.5 941 1794.5 725 1946.5 640 1819.5"/><polygon class="c" points="413 1819.5 573 1819.5 649 1949.5 331 1946.5 413 1819.5"/><polygon class="c" points="29 1828.5 241 1993.5 241 2099.5 25 1929.5 29 1828.5"/><polygon class="c" points="270 1992.5 707 1992.5 707 2109.5 270 2106.5 270 1992.5"/><polygon class="c" points="737 1992.5 955 1828.5 955 1931.5 733 2109.5 737 1992.5"/><path class="d" d="M493.5,1699c86.77-4.13,157.23-24.57,212.09-48.5,66.44-29,110-63.07,131.91-79.5,40-30-3-18-15-14s-56-5-15-20,94-138,104-165-6-46-13-33-24,17-24,17c-19-50,32-74,32-74s-6-27,14-75,20-108,20-108-22,43-34,54-11-8-5-44,8-102,0-115-4-35-6-66,4-75,0-58-10,24-18,36-22,27-22,27a225.22,225.22,0,0,1-9-37c-3-20-1-52-9-80s-5-51-16-70-9-72-9-72-7-2-15,12-22,58-22,58-13-24-25-53-29-44-37-67-20-56-22-56-4,50-17,54-31-38-37-52-6-74-6-74-4,21-15,11,18-54,26-93-13-98-13-98,0,3-6,25-16,37-14,31,7-87,0-88-14-35-7-51-12-22-15-3-20,25-20,25c8-38-26-123-26-123s-21,36-30,30-52-162-52-162-22,28-22,39-6,46-5,65,0,74,0,74c-15-2-44-41-44-41s-12,37-10,50c3.33,21.68,4,48,6,68s-35-23-35-23-12,13-5,37,2,33,6,54,16,34,9,50-27,0-27,0,14,21,19,36-2,46,5,69,7,45-2,48-11-8-12,0-10,17-24,49-23,49-26,73-14-2-27-21-16-52-18-21-30,61-31,74-2,31-11,33-6,40-25,54-38-63-38-63c-16,30-10,55-10,106s-9,97-13,111-11,35-24,42-19-21-19-21c-12,1-35-21-35-21,0,45,23,39,27,55s-5,81,6,123,3,87,3,98-9,22-9,22c-20-17-38-15-38-15,31,113,90,208,98,214s-92,12-66,12,48,63,68,99,52,50,52,50-75-3-45,5,71,45,117,66c3.71,1.7,7.71,3.47,12,5.3C314.83,1676.08,397,1703.6,493.5,1699Z"/><path class="e" d="M484.49,1660.93l-.41.27c-13.82-7.23-104.88-63.77-192.86-159.34-53.07-57.65-94.45-118.09-123-179.65-35.35-76.3-50.89-154.46-46.18-232.33,4.49-74.29,26.43-151,65.2-228,31.07-61.69,73-123.69,124.5-184.28,79.73-93.73,158.32-155.15,172.74-166.13,14.71,11,95.55,72.77,176.35,167.08C713,739.42,754.94,801.7,785.48,863.67c38.1,77.3,58.5,154.34,60.62,229a548.54,548.54,0,0,1-50.3,246.71c-28.87,62.8-70,122.42-122.2,177.23C588,1606.44,498.84,1655.29,485.05,1661.3Z"/><path class="f" d="M484.55,516.51c19.54,14.74,96.5,75,173.41,164.8,51.89,60.59,93.6,122.57,124,184.22,37.82,76.76,58.06,153.2,60.16,227.22a544.38,544.38,0,0,1-49.48,243.92c-28.46,62.24-69,121.38-120.63,175.79a802,802,0,0,1-125.93,107.41c-29.83,20.48-52.41,32.82-60.69,36.85l-.87-.58-.59.39c-8.52-4.83-31.73-19.29-62.28-42.27A965,965,0,0,1,292.9,1497.78c-52.46-57.23-93.32-117.19-121.45-178.2-34.76-75.39-50-152.59-45.38-229.46,4.46-73.69,26.22-149.8,64.69-226.23,30.89-61.37,72.55-123.08,123.82-183.4,75.86-89.23,150.8-149.18,170-164m-.05-10s-346.58,255-366.41,583.14c-21,347.65,361.33,576.1,366.36,576.1h.09c5.41,0,376.42-190.81,365.56-573.22-9.37-329.84-365.6-586-365.6-586Z"/><path class="f" d="M484,656h0s-246,192-260,439C209,1357.55,482.3,1529.8,484,1528.6c1.71,1.2,267.22-142.45,259.48-431.5C736.82,848.81,484,656,484,656Z"/><polygon class="g" points="622.5 976 513.5 976 513.5 877 459.5 877 459.5 976 350.5 976 350.5 1030 459.5 1030 459.5 1333 513.5 1333 513.5 1030 622.5 1030 622.5 976"/><path class="e" d="M577,843.08c1.47,1.26,2.81,2.34,4.08,3.51.61.57,1.56,1.21,1.26,2.12-.41,1.21-1.6.7-2.52.69-.49,0-1,.07-2.19.16,3,2.1,5.75,3.46,7.53,5.93.43.59,1.25,1.16.93,2s-1.32.43-2,.49c-1.12.08-2.7-.71-3.15.73s1.33,1.74,2.14,2.53c1.75,1.71,5.1,3.62,4,5.65s-4-1.13-6.88-.87c6.78,4.7,9.93,10.59,7.66,18.84-1.79-1-2-2.72-2.84-4-1.43-2.09-3-4.05-5.35-5.1-1.5-.65-2.16,0-1.71,1.45.51,1.66,1.29,3.23,1.89,4.86a17.87,17.87,0,0,1,.07,13.37c-.45,1.08-.75,2.64-2.12,2.51s-1-1.72-1.17-2.72a21.6,21.6,0,0,0-4.68-11c-.47-.58-1-1.38-1.82-1.09s-.74,1.25-.69,2a28.08,28.08,0,0,1-1.81,12.8,11.21,11.21,0,0,1-1.61,2.79c-.95,1.14-1.76.79-1.87-.62-.16-1.94-.11-3.9-.21-5.85-.53-10.33-3.05-20-9.77-28.14a34.54,34.54,0,0,0-10.77-8.83A23.75,23.75,0,0,1,533,846.89a25.15,25.15,0,0,0-7.42-9c-4.66-3.36-8.74-2.63-12,2.05a39.59,39.59,0,0,1-3.47,4.7c-3.67,3.82-8.62,4.12-12.53.59a70.28,70.28,0,0,0-7.9-6.32c2.47-.84,4.87-.74,6.94-1.8s4-2.48,3.72-5.17-2.38-3.72-4.73-4.26a13.14,13.14,0,0,0-10.31,2c-6.62,4.38-13.65,6-21.61,5.49-7.43-.45-13.92,2.94-19.79,7.34-6.23,4.67-11.28,10.48-16,16.58-.67.87-1.29,2.49-2.65,1.9-1-.45-.6-2-.53-3a21.23,21.23,0,0,1,5-12.49c.56-.66,1.76-1.45,1-2.46s-1.82-.21-2.7.1a21.31,21.31,0,0,0-9.6,7c-.54.67-1.11,1.68-2,1.34s-.87-1.67-.8-2.58a14.38,14.38,0,0,1,3.66-8.2,34.16,34.16,0,0,1,7.05-6.25c.75-.52,2.05-1,1.62-2.12s-1.69-.87-2.64-.86a14.35,14.35,0,0,0-7.38,2.3c-.87.53-1.58,1.54-2.85,1.21.84-6.58,6.54-10.89,16.14-11.92-1.79-1.41-3.76-1-5.32-1.74-.46-.21-1.11-.45-1.26-.84-.29-.79.52-1.09,1.06-1.38a16.36,16.36,0,0,1,6.89-1.76c.86-.06,1.95.06,2.2-1s-.89-1.28-1.63-1.65c-.92-.45-2.63-.3-2.58-1.49.08-1.61,1.92-1.53,3.1-1.76,2.52-.48,5.09-.73,7.65-1.07,0-.23.06-.49-.05-.62-.79-1-2.93-1.17-2.53-2.58s2.4-1.08,3.73-1.37c.93-.21,1.89-.27,3.12-.43-.55-1.34-2.83-1.24-2.26-2.55s2.27-1.1,3.54-1.1c1.72,0,3.54.61,3.34-2.31-.08-1.09,1.07-1.74,2.08-2.29,2.79-1.51,5.54-3.13,8.25-4.71,4.28-2.5,8.34-5.69,13.88-6.11,3.85-.3,7.51-1.63,11.62-1,7.15,1.16,12.51,4.36,15.66,11,.3.63.32,1.74,1.35,1.53.87-.17.82-1.19.92-1.89.45-3.31-.7-6.21-2.51-8.89-3.17-4.68-7.57-8-12.18-11.15-1.69-1.15-4.1-2.08-3.76-4.46s2.92-3,5-3.52c2.26-.54,4.37-.61,5.2-3.64.56-2,3.14-2.16,5.11-1.91A4.15,4.15,0,0,0,505,761c1.84-2.17,4.35-2.39,6.85-1.27,1.52.69,2.66.85,4.13-.26,2.11-1.6,4.48-1.76,6.49.3a2.49,2.49,0,0,0,2.9.6,7.74,7.74,0,0,1,8.31,2.31,2.78,2.78,0,0,0,3.05,1.13c2.65-.64,4.46.72,5.42,3.06a3.53,3.53,0,0,0,3.28,2.55,5.64,5.64,0,0,1,5.41,5.2,3.33,3.33,0,0,0,2.21,2.81c2.72,1.32,4.83,3.24,3.49,6.68-.56,1.42.48,1.62,1.15,2.24,2,1.82,4.85,3.6,4,6.57s-4.32,2.24-6.8,2.37c-4.69.26-9.33.71-13.74,2.44-3.54,1.38-6.5,3.5-8.21,7-.29.59-.67,1.25-.13,1.8s1.18,0,1.67-.38c7.2-5.05,14.61-3.85,21.75-.2a15.49,15.49,0,0,1,6.14,5.06,37.44,37.44,0,0,0,5,5.55c2.25,2.3,2.86,5.25,4.11,7.67a59.86,59.86,0,0,1,3.49,6.83c.8,2.19,2.61,3.79,1.24,6.44-.5,1,.91,1.26,1.61,1.68,1.08.64,2.91.88,2.73,2.36S578.45,842.33,577,843.08Z"/><rect class="a" x="375.3" y="1452.53" width="24.46" height="130.95" rx="5.95" transform="translate(-959.89 718.64) rotate(-45)"/><path class="h" d="M309.1,1406.29c-6-3.58-14.53-8.55-19.3-14a33.81,33.81,0,0,0,3.19,6.67c1.8,2.63,4.39,5.2,6.32,7.79-2.33-2-4.5-4.27-7-6.13-3.73-2.81-7-3.87-10.54-5.87-3.81-2.13-9.32-4.94-12.8-8.55,3.05,4.26,3.64,8,7.75,12.47-6.88-6.71-13.43-13.54-20.28-20.29.12,2,2.85,5.65,3.95,8.14-1-.19-2.11-1.31-3.26-2.52-1.22,1.65,3.46,8.64,6.86,12-3.57-2.76-8.28-5.06-10.29-4.4,4.32,4.34,4.63,8.44-.86,3.63-3.5-3.08-6.58-8.09-7.09-10.73.6,6.42,2.9,12.29,9.18,22.07,4.26,6.6,11.74,16.74,18.28,22.19-5.38-2.83-6.93-1.17-6.16,2.72,4.48-2.94,13.88,15.26,15.58,19.39,3.95,9.35,6,18.31,15.88,25.88,7.6,5.79,15.8,8.3,21,7.09,2.57-.61,3.52-3.62,6.84-2.9,3.83.91,12.93,9,15,7.15,4.5,2.63,7.85,3.31,9.72,1.17,1-1.2,1.7-2.37.42-5.09s-3.56-4-2.36-5.38,4.14-1.45,5.77-2.74c2.4-2,6.22-9.09-3.21-15.19-1.7-1-2.13-.33-3.37-2.58s.4-5.14.69-6.72c.36-2.28,1.38-4.8,0-8.11s-4.89-8.42-7.68-11.73C333.07,1421.65,320.19,1413,309.1,1406.29Z"/><path class="i" d="M346.23,1439.73a15.64,15.64,0,0,1-4.39,7.18c-1.57,1.46-5.75,3.66-3.71,7.43s7.09,5,10,8.52c4.78,5.75-.07,6.13-3.19,6.5-1.53.13-5.31.54-4.92,2.69s4,4.62,5,6.54c2,3.58-1.1,4.29-3.41,4.1-3.71-.34-7-2.24-11.46-5-2.74-1.71-8.5-6.78-11-7.47-2.78-.76-1.93,4.38-2.86,5.95-1.88,3.06-5.75,4-10.08,4.49a7.93,7.93,0,0,1-1.7-.1c5.7,3,6.77,14,13.91,9.88,3.39-2,5.31-7.86,8.63-7.15,3.84.91,8.28,5.36,14,7.19,3.31,1.9,8.16.9,10-1.24,1-1.2,1.7-2.37.42-5.09s-3.56-4-2.36-5.38a9.58,9.58,0,0,1,5.77-2.74c6.34-.91,9.56-8.31.12-14.42-1.69-1-5.1-2.21-6.33-4.45s1.28-3.52,2.29-4.53c3.18-3.18,2.19-8.89.41-12.32-4.64-8.94-10.87-8.32-14.13-13.41C337.26,1427.26,346.32,1439.33,346.23,1439.73Z"/><path class="j" d="M301.87,1465.86c-1.83.44-6.17-2.54-8.64-4.78-4.71-4.27-7.13-9.47-10.15-14.54-2.7-4.56-5.1-10.24-9.26-14.26,3.3,1,6.52,2.27,9.89,3.54-5.48-6.06-11.74-11.23-17.2-17.5a84.39,84.39,0,0,1-9.53-12.83,59.52,59.52,0,0,0-3-5.6c2.17,1.56,10.47,7.88,11,5.77.43-1.6-5.64-8.18-7.24-10.07,3.19,2.17,11.36,8.26,12.86,6.71,1-1-4.87-10.55-7-13.09,7.13,7.17,14.77,16.07,23.15,20.2,5.2,2.53-1.91-5.17-4.56-8-2.45-2.65-6.44-7-8.71-8.86,4.65,4.85,12.05,8.82,17.21,12.28,5,3.36,8.2,7.31,12.57,11.09-3.44-3.6-2.53-7.45-3-10.19,2.94,6,13.28,14.46,18.18,20.27,5.9,7,10.73,14.2,16.1,21-7.89-6.29-13.51-16-22.64-21.9-6.68-4.29-7.13-.05-2.13,5.44-3.1-3-5.83-6.44-9.31-9a47.6,47.6,0,0,0-9.66-5.26c-5.12-2.32-10.2-4.51-15.45-8.14,4.3,4.87,9.88,11.09,12.81,16.19-5-5.09-22.17-17-14.43-4.93,3.9,6.21,8.76,11.16,14.28,16.14,4.87,4.41,9.79,9.32,14.62,13.34-7.9-4.29-18.55-8.39-11.69,4.3,1.58,3,9.81,14.24,12.18,12.12Z"/><path class="k" d="M236,1393.76c2.43,2.56,4,3.77,6,6.75a98,98,0,0,0,6.39,9.31c2.89,3.46,6.28,7,9.48,8.4l2.62,1.13c-4.46-4.89-6.82-9.56-10.94-14.43A51,51,0,0,0,236,1393.76Z"/><path class="l" d="M252.9,1387.92a57.63,57.63,0,0,1-7.24-7c-3.48-3.82-5.17-6.71-8.1-10.32,3.91,4.54,6.51,6.41,10.66,9.58,2,1.54,6.16,5,7.56,7.24C257.63,1390.44,255.2,1389.63,252.9,1387.92Z"/><path class="j" d="M222.14,1371.38c2.46,1.5,4.4,2.33,7,5.29s3.52,6.43,6.95,9.07c2.65,2,3.19.56,1.82-1.8C234.36,1377.87,226.33,1372.61,222.14,1371.38Z"/><path class="j" d="M242.88,1400.05l-1-.72c3,3,4.82,6.35,7.3,9.52a27.63,27.63,0,0,0,7.51,6.91c-2.5-2.37-4.2-6.08-6.27-8.68A31.13,31.13,0,0,0,242.88,1400.05Z"/><path class="m" d="M228.55,1375.41l.71.57-.26-.26Z"/><path class="m" d="M229.26,1376a18.77,18.77,0,0,1,3.8,5.14c.68,1.28,2.34,4,3.65,3.77C239.47,1384.48,232,1378.17,229.26,1376Z"/><path class="m" d="M244.84,1378.76c1.24,1.76,3.93,5.34,6,6.62,1.38.88,2.12,1,1.12-.6C250.38,1382.28,246.24,1380.63,244.84,1378.76Z"/><path class="m" d="M323,1458.77c.67.64,1.26,1.19,1.66,1.59A13.86,13.86,0,0,0,323,1458.77Z"/><path class="n" d="M320.27,1446.76c-6.74-5.74-14.26-9.87-21-15.61,4.22,4.17,10.14,9.32,13.12,13.75-6.1-6.24-13.09-8.61-18.95-11,6,8.82,18.61,15.81,23.92,24.24,2.23,3.53.28,3.53-2.82,1.49-2.61-1.72-5.07-4.46-7.42-6.85,7.05,10.09,17.14,17.92,26,21.83a38.51,38.51,0,0,1-7-6.41c3.24.63,9.09,5.86,12.64,8-2.71-2.87-5.65-4.87-8.56-7.55-2.44-2.24-9.52-9.15-9.88-11.64a13.91,13.91,0,0,1,2.69,1.74c-3.14-3-8.24-7.87-4.63-7.34,2,.31,6.41,4,8.55,5.46,3.15,2.23,6.31,5.09,9.38,7.14A108.12,108.12,0,0,0,320.27,1446.76Z"/><path class="n" d="M327.81,1423.71c-9.26-8.79-20-13.72-29.34-22.39,2.21,2.63,3.92,5.22,6.44,7.78,4.21,4.26,9.32,7.82,13.86,11.66,8.11,6.69,21.36,23,21.22,23.06-.67-2.6,0-3.64-1.44-6.66C336.31,1432.39,332.32,1428,327.81,1423.71Z"/><path class="o" d="M337.43,1464.5h-.13C337.47,1464.83,337.57,1465,337.43,1464.5Z"/><path class="p" d="M296.44,1413.43c3.43,8.14,12.89,18.32,20.35,25.77-6.18-6.23-15.49-18.52-23.58-20.12-11.6-2.31-12.23-8.22-17.93-15.48,2.44,2.61,3.27,7,5.22,9.77,4.3,6.2,15.83,11.6,19.32,14.08-14.82-5.48-21.82-15.4-28.52-22.1,6.86,12.87,20.29,23.47,31.91,31.42,7.1,4.92,14.45,7.66,21.27,13.31,2.88,2.37,11.42,12.12,11.37,14.45a23.39,23.39,0,0,0-1.17-4.85,56.78,56.78,0,0,0-5.55-10.28,107.39,107.39,0,0,0-15.63-19.07C307.7,1424.71,301.7,1419.4,296.44,1413.43Z"/><path class="p" d="M303.73,1414.37c21.5,18.26,31.51,34.38,31.51,34.33-1.69-3.2-.17-6.06-1.37-9.45-1.38-3.85-4.82-8.3-8.57-11.94C317.73,1420,311.18,1420.16,303.73,1414.37Z"/><path class="p" d="M321.44,1465c-6-2.21-13.51-10.78-16.9-17.19.11,2.09,2.46,9.14,5.84,10.61-6-2-15.67-14.31-20.74-19.75,1.59,3.45,3,7,4.91,10.55,2.95,5.61,8.21,10.54,13.4,13.75,6.27,3.89,12.93,5.57,18.56,7.43,2.4.77,5.38,1,7.88,3.72A35,35,0,0,0,321.44,1465Z"/><rect class="a" x="578.26" y="1447.52" width="24.46" height="130.95" rx="5.95" transform="translate(1242.8 25.6) rotate(45)"/><path class="q" d="M702.21,1434.57c3.58-6,8.55-14.54,14-19.3a33.81,33.81,0,0,0-6.67,3.19c-2.63,1.8-5.2,4.39-7.79,6.32,2-2.33,4.27-4.5,6.13-7,2.81-3.74,3.87-7,5.87-10.54,2.13-3.81,4.94-9.33,8.55-12.8-4.26,3-8,3.64-12.47,7.75,6.71-6.88,13.54-13.44,20.29-20.29-2,.13-5.65,2.86-8.14,4,.19-1,1.31-2.11,2.52-3.27-1.65-1.21-8.64,3.46-12,6.87,2.76-3.57,5.06-8.29,4.4-10.29-4.34,4.32-8.44,4.62-3.63-.86,3.08-3.51,8.09-6.58,10.73-7.09-6.42.6-12.29,2.89-22.07,9.18-6.6,4.26-16.74,11.74-22.19,18.27,2.83-5.37,1.17-6.93-2.72-6.15,2.94,4.47-15.26,13.88-19.39,15.58-9.35,3.95-18.31,6-25.88,15.88-5.79,7.6-8.3,15.79-7.09,21,.61,2.57,3.62,3.51,2.9,6.84-.91,3.83-9,12.93-7.15,15-2.63,4.5-3.31,7.85-1.17,9.71,1.2,1,2.37,1.71,5.09.43s4-3.56,5.38-2.37,1.45,4.15,2.74,5.78c2,2.4,9.09,6.22,15.19-3.22,1-1.69.33-2.13,2.58-3.37s5.14.41,6.72.7c2.28.36,4.8,1.38,8.11,0s8.42-4.89,11.73-7.68C686.85,1458.54,695.54,1445.66,702.21,1434.57Z"/><path class="i" d="M668.77,1471.69a15.55,15.55,0,0,1-7.18-4.39c-1.46-1.56-3.66-5.75-7.43-3.7s-5,7.08-8.52,10c-5.75,4.77-6.13-.07-6.5-3.19-.13-1.53-.54-5.32-2.69-4.92s-4.62,4-6.54,5c-3.58,2-4.29-1.1-4.1-3.42.34-3.7,2.24-7,5.05-11.46,1.71-2.73,6.78-8.49,7.47-11,.76-2.78-4.38-1.93-6-2.87-3.06-1.87-4-5.74-4.49-10.07a7.9,7.9,0,0,1,.1-1.7c-3,5.7-14,6.77-9.88,13.91,2,3.39,7.86,5.31,7.15,8.63-.91,3.84-5.36,8.28-7.19,14-1.9,3.32-.9,8.17,1.24,10,1.2,1,2.37,1.71,5.09.43s4-3.56,5.38-2.37a9.58,9.58,0,0,1,2.74,5.78c.91,6.33,8.31,9.56,14.42.12,1-1.69,2.21-5.1,4.45-6.34s3.52,1.28,4.53,2.3c3.18,3.18,8.89,2.19,12.32.41,8.94-4.65,8.32-10.88,13.41-14.13C681.24,1462.72,669.17,1471.79,668.77,1471.69Z"/><path class="j" d="M642.64,1427.34c-.44-1.84,2.54-6.17,4.78-8.64,4.27-4.72,9.47-7.13,14.54-10.15,4.56-2.7,10.24-5.1,14.26-9.26-1,3.29-2.27,6.52-3.54,9.89,6.06-5.48,11.23-11.74,17.5-17.2a84.39,84.39,0,0,1,12.83-9.53,59.52,59.52,0,0,0,5.6-3c-1.56,2.17-7.88,10.47-5.77,11,1.6.43,8.18-5.65,10.07-7.25-2.17,3.2-8.26,11.37-6.71,12.87,1,1,10.55-4.87,13.09-7-7.17,7.12-16.07,14.76-20.2,23.15-2.53,5.2,5.17-1.91,8-4.56,2.65-2.45,7-6.44,8.86-8.71-4.85,4.64-8.82,12-12.28,17.21-3.36,5-7.31,8.19-11.09,12.57,3.6-3.44,7.45-2.53,10.19-3-6,2.94-14.46,13.28-20.27,18.18-7,5.9-14.2,10.73-21,16.1,6.29-7.89,16-13.51,21.9-22.64,4.29-6.68,0-7.13-5.44-2.13,3-3.1,6.44-5.83,9-9.32a47.08,47.08,0,0,0,5.26-9.66c2.32-5.11,4.51-10.19,8.14-15.45-4.87,4.31-11.09,9.89-16.19,12.82,5.09-5,17-22.18,4.93-14.44-6.21,3.91-11.16,8.77-16.14,14.28-4.41,4.88-9.32,9.8-13.34,14.63,4.29-7.9,8.39-18.56-4.3-11.69-3,1.58-14.24,9.81-12.12,12.18Z"/><path class="r" d="M714.74,1361.49c-2.56,2.43-3.77,4-6.75,6a99.73,99.73,0,0,0-9.31,6.38c-3.46,2.89-7,6.29-8.4,9.49-.38.87-.76,1.75-1.13,2.62,4.89-4.46,9.56-6.82,14.43-11A50.84,50.84,0,0,0,714.74,1361.49Z"/><path class="s" d="M720.58,1378.37a57.63,57.63,0,0,1,7-7.24c3.82-3.48,6.71-5.17,10.32-8.1-4.54,3.91-6.41,6.5-9.58,10.66-1.54,2-5,6.16-7.24,7.56C718.06,1383.1,718.87,1380.67,720.58,1378.37Z"/><path class="j" d="M737.12,1347.61c-1.5,2.46-2.33,4.4-5.29,7s-6.43,3.53-9.07,7c-2,2.65-.56,3.19,1.8,1.82C730.63,1359.83,735.89,1351.8,737.12,1347.61Z"/><path class="j" d="M708.45,1368.35l.72-1c-3,3-6.35,4.81-9.52,7.3a27.6,27.6,0,0,0-6.91,7.5c2.37-2.49,6.08-4.2,8.68-6.26A31.13,31.13,0,0,0,708.45,1368.35Z"/><path class="m" d="M733.09,1354c-.13.16-.32.41-.57.71l.26-.27C732.89,1354.32,733,1354.17,733.09,1354Z"/><path class="m" d="M732.52,1354.73a18.51,18.51,0,0,1-5.14,3.79c-1.28.69-4,2.35-3.77,3.66C724,1364.94,730.33,1357.43,732.52,1354.73Z"/><path class="m" d="M729.74,1370.3c-1.76,1.25-5.34,3.94-6.62,6-.88,1.39-1,2.13.6,1.13C726.22,1375.85,727.87,1371.71,729.74,1370.3Z"/><path class="m" d="M649.73,1448.46c-.64.67-1.19,1.26-1.59,1.66A14.66,14.66,0,0,0,649.73,1448.46Z"/><path class="n" d="M661.74,1445.74c5.74-6.74,9.87-14.26,15.61-21-4.17,4.21-9.32,10.13-13.75,13.12,6.24-6.1,8.61-13.09,11-18.95-8.82,6-15.81,18.61-24.24,23.92-3.53,2.22-3.53.28-1.49-2.82,1.72-2.61,4.46-5.07,6.85-7.42-10.09,7-17.92,17.14-21.83,26a39,39,0,0,1,6.41-7c-.63,3.25-5.86,9.1-8.05,12.65,2.87-2.71,4.87-5.65,7.55-8.56,2.24-2.44,9.15-9.52,11.64-9.88a13.91,13.91,0,0,1-1.74,2.69c3-3.14,7.87-8.24,7.34-4.63-.31,2-4,6.41-5.46,8.55-2.23,3.15-5.09,6.31-7.14,9.38A108.58,108.58,0,0,0,661.74,1445.74Z"/><path class="n" d="M684.79,1453.28c8.79-9.26,13.72-20,22.39-29.34-2.63,2.21-5.22,3.91-7.78,6.44-4.26,4.21-7.82,9.32-11.66,13.86-6.69,8.1-23,21.36-23.06,21.22,2.6-.67,3.64,0,6.66-1.44C676.11,1461.78,680.47,1457.79,684.79,1453.28Z"/><path class="o" d="M644,1462.9v-.14C643.67,1462.94,643.55,1463,644,1462.9Z"/><path class="p" d="M695.07,1421.91c-8.14,3.42-18.32,12.89-25.77,20.35,6.23-6.18,18.52-15.49,20.12-23.58,2.31-11.61,8.22-12.23,15.48-17.93-2.61,2.44-7,3.27-9.77,5.22-6.2,4.3-11.6,15.83-14.08,19.32,5.48-14.82,15.4-21.82,22.1-28.52-12.87,6.86-23.47,20.29-31.42,31.91-4.92,7.1-7.66,14.45-13.31,21.26-2.37,2.89-12.12,11.42-14.45,11.38a23.09,23.09,0,0,0,4.85-1.18,56.08,56.08,0,0,0,10.28-5.54A107,107,0,0,0,678.17,1439C683.79,1433.16,689.1,1427.17,695.07,1421.91Z"/><path class="p" d="M694.13,1429.2c-18.26,21.5-34.38,31.51-34.33,31.5,3.2-1.68,6.06-.17,9.45-1.37,3.85-1.37,8.3-4.82,11.94-8.56C688.47,1443.2,688.34,1436.65,694.13,1429.2Z"/><path class="p" d="M643.46,1446.91c2.21-6,10.78-13.51,17.19-16.9-2.09.11-9.14,2.46-10.61,5.84,2-6,14.31-15.67,19.75-20.74-3.45,1.59-7,3-10.55,4.91-5.61,3-10.54,8.21-13.75,13.4-3.89,6.27-5.57,12.93-7.43,18.56-.77,2.39-1,5.38-3.72,7.88A35.11,35.11,0,0,0,643.46,1446.91Z"/><path class="t" d="M569.21,317.7c-5.57-14.07-14-34-12.26-49.15-2.8,4.51-6.32,8.44-8.12,14.54-1.94,6.52-1.86,14.13-3.42,20.79-.77-6.38-.54-12.93-2-19.31-2.14-9.65-7.2-16-10.86-24.2-4-8.75-10.24-21-9.9-31.46-2.83,10.77-10.22,17.18-11,29.8-.4-20,.25-39.76,0-59.82-4.39,3.14-6.52,12.54-9.77,17.84-1.93-1.79-1.85-5-1.72-8.53-6.66.64-12.07,17.84-11.9,27.77-1.9-9.34-7.51-19.68-13.74-21.66,0,12.77-8.86,19.26-10.45,4.09-1-9.71,3.52-21.63,8.49-26.28-13.55,10.34-21.88,22.38-30,46.08-5.46,16-11.65,42-9.14,59.65-5.92-12.11-13.41-12-20.66-5.07,17.27,2.26-3.22,43-8.88,51.55-12.57,19.61-28.59,35.91-23.28,61.57,4.18,19.74,17.45,35.52,32.29,41.35,7.4,2.89,16.61-.15,22.69,5.81,6.82,7,9.25,32.26,18.4,32.71,4.35,10.51,10.57,16.44,19.9,16,5.21-.22,9.48-1,12.84-6.88,3.28-5.66,1-11.15,7-11.41,6.49-.24,13,4,19.85,4.47,10.27.57,35.66-4.22,27.9-27.14-1.52-4-4.2-3.62-1.86-8.75,2.34-5.31,12.93-7,17.27-8.89,6.17-2.83,14.42-5,19-11.92s8.21-19.61,9.42-28.61C589.27,375.68,579.51,343.88,569.21,317.7Z"/><path class="i" d="M577.79,421.71c-8.54,3.26-18.49,4.19-27,4.13-7-.17-21.92-3.09-25.93,5.49-4,8.34,4.81,17.83,3.47,27.31-2.28,15.51-14.44,8.93-22.58,4.88-3.86-2.06-13.65-7-17.74-3.28-3.88,3.57-1.52,12.66-3.58,17-3.8,8.14-12.55,4.7-17.5,1-7.85-6-11.15-13.65-14.94-24.35-2.38-6.55-4-22.52-8.26-27.25-4.71-5.21-14.69,3.62-20.54,4.56-11.48,1.74-22.79-2.52-33.92-8.24a21.46,21.46,0,0,1-3.74-2.66c6.24,12.86-16.94,30.69,9.4,35.08,12.49,2.08,30.68-3.77,36.76,2.19,6.83,7,6.79,20.11,15.91,31.27,3.29,7.68,16.94,13.35,26.27,12.95,5.21-.22,9.48-1,12.84-6.88,3.28-5.66,1-11.15,7-11.41A44.35,44.35,0,0,1,513.62,488c16.86,8,41.63,1.84,33.87-21.07-1.52-4-6.73-10.78-4.39-15.91,2.34-5.31,11.17-3.29,15.91-3.29,14.81,0,25.79-9.88,29.63-17.56,10-20-5.95-28.29-1.65-40.6C585.93,390.12,578.93,421.28,577.79,421.71Z"/><path class="j" d="M413.59,394.86c-5.32-2.05-8.47-12.85-9-19.8-1-13.23,5.45-24.47,10.23-36.4,4.34-10.69,12-22.59,11.65-34.65,5.4,6.29,9.91,12.95,14.77,19.79,1.37-17-1.18-33.87.71-51.17,1.14-10.62,3.53-23.76,7.69-32.95,2-4.47,4.52-7.73,6-12.71,1.44,5.51,6.05,27.05,12.25,24.77,4.73-1.72,5.9-20.37,6.59-25.52,2.4,7.91,7.22,28.93,14.33,28.86,4.54,0,13.24-22.74,14.26-29.58C503,246.58,500,271,510,289.4c6.22,11.4,7.59-10.43,8-18.51.46-7.52,1.22-19.77.34-25.9-.47,14,7.51,30.77,11.47,43.47,3.82,12.32,2.08,22.86,3.46,34.88.37-10.37,11.45-14.71,16.68-19.49-7.17,13.2-2.75,40.9-4.86,56.69-2.5,19-8.09,36.74-11.49,54.72-3.73-20.89,5.89-43.54-1.72-65.66-5.57-16.16-16.48-10.57-17.64,4.89-.33-8.93,1.41-18.09-.64-27.06-2-8.64-6.24-15.23-10.26-22-6.52-11-13.23-21.68-17-34.78-1.31,13.52-2.8,30.93-7.87,42.77.13-14.94-12-57.79-22.14-28.55-5.34,14.9-5.55,29.36-4.31,44.83,1.08,13.7,1.11,28.19,3,41.24-8.4-18-23.68-39.73-37.25-10.9-3.29,6.73-10.31,35.44.13,35.83C416.42,395.53,415,395.19,413.59,394.86Z"/><path class="u" d="M428.14,191.48c-.3,7.37.59,11.51-1.76,18.79-2.45,7.58-5.62,14.74-6.82,23.13-1.33,9.37-1.66,19.59,2.54,26.37q1.71,2.78,3.45,5.55c1-13.8,6.38-24.17,8.12-37.43C435.47,214.37,432.52,201.55,428.14,191.48Z"/><path class="v" d="M481.06,207.76c-1.73-7.38-.8-17.62-.56-21,.79-10.77,3.59-17.53,5.19-27.16-1.48,12.45.21,19,2.5,29.83,1.1,5.25,2.8,16.4.76,21.82C486.22,218.45,482.45,213.68,481.06,207.76Z"/><path class="j" d="M447.92,138c2.27,5.83,4.85,9.91,3.93,18.06-.89,8-6.79,14.69-4.94,23.63,1.43,6.89,6.11,5.52,8.44,0C461.28,165.62,454.83,146,447.92,138Z"/><path class="j" d="M429.46,210.88l-.63-2.52c.09,8.87-3.57,16.45-5.17,24.8-1.52,8-1.13,14.92,1.39,21.24-.3-7.17,4.37-15.15,5.63-22A41.34,41.34,0,0,0,429.46,210.88Z"/><path class="m" d="M453.5,153.43c.07.42.18,1.07.31,1.89v-.79C453.7,154.17,453.6,153.8,453.5,153.43Z"/><path class="m" d="M453.81,155.32a26.15,26.15,0,0,1-3.13,13.16c-1.39,2.9-3.78,9.3-.28,11C457.79,182.9,455,162.53,453.81,155.32Z"/><path class="m" d="M483.61,182.38c-1.19,4.42-3.26,13.67-1.53,18.54,1.19,3.34,2.56,4.64,4,.78C488.32,195.74,482.55,187.2,483.61,182.38Z"/><path class="m" d="M479.29,415.54c.08,1.93.16,3.61.17,4.79A19.21,19.21,0,0,0,479.29,415.54Z"/><path class="n" d="M500.94,393.81c-2.33-18.38-10.23-35.56-12.62-54,.1,12.36,1.89,28.67-1.47,39.61.32-18.18-10.44-32-18.46-44.2-6.63,21.82,6.54,50.74-.74,71-3,8.49-7.58,5.62-10-2-2.06-6.37-1.41-14-1.32-21a90.67,90.67,0,0,0,9.79,70.55c-1.77-6.85-2.43-16-1.44-19.81,6.1,5.72,7.53,22,10.72,30.51.36-8.23-1.82-15.52-2.36-23.75-.46-6.9-.87-27.53,4.09-31.72a20.39,20.39,0,0,1,2.21,6.53c-.4-9-.84-23.76,6.31-17.65,4,3.46,5.74,15.27,7.21,20.66,2.15,7.93,2.83,16.8,5.22,24.34C501.52,427.67,503,410.15,500.94,393.81Z"/><path class="n" d="M572.2,371c-1.08-26.6-14.53-49.64-16.18-76.25-1,7.14-3,13.46-3.11,21-.15,12.49,3.49,25.26,5.1,37.62,3.3,21.81-3.94,65.48-4.28,65.27,4.5-4.81,8.41-5.41,12.14-11.93C571.79,396.28,572.65,384,572.2,371Z"/><path class="o" d="M499.6,445.28l-.33-.2C498.92,445.82,498.85,446.14,499.6,445.28Z"/><path class="p" d="M523.08,309.56c-11,17-12.65,46-12.63,68,.1-18.3,7.07-50.14-8.08-64.42-21.65-20.51-9.32-30.15-5.69-49.26-.41,7.44-8.65,15.11-10.61,22.1-4.42,15.48,9.86,40.45,12.2,49.24-21.74-29.93-14.94-54.86-14.94-74.62-14,29.07-7.41,64.5,1.13,93.37,5.1,17.71,15.82,32.58,18.55,51,1.19,7.75-1.63,34.7-7.18,38.07a51.49,51.49,0,0,0,8.57-8.88c4.74-6.24,8.19-15.23,11-23.32a145.25,145.25,0,0,0,8-51.17C523,342.78,521.42,326.11,523.08,309.56Z"/><path class="p" d="M537.86,321.7c7.56,58.61-6.69,97.13-6.59,97.05,3.55-7.21,13.72-9.18,18.82-15.95,5.78-7.71,8.13-19.35,7.87-30.23C557.31,350.67,541.73,341.2,537.86,321.7Z"/><path class="p" d="M461.08,422.49c-8.74-12-6.36-35.79.68-50.26-4.61,3.25-15.57,17.1-11.12,24.25-9.51-11.78-3.16-44.2-2.3-59.68-4.34,7.42-9.22,14.77-13.13,22.79-6.19,12.62-5.45,27.65-.84,40,5.55,15,17.16,27.28,25.95,38.31,3.78,4.66,10.26,9.37,9.67,17.11A49,49,0,0,0,461.08,422.49Z"/><path class="a" d="M346.92,674.59a22.37,22.37,0,0,1,4.68-12,50.67,50.67,0,0,1,8.31-8.38c3.23-2.7,6.17-2.26,8.63.69a6.41,6.41,0,0,1-.35,8.88,11.58,11.58,0,0,1-2.06,1.62c-4.71,3-5.68,7.52-5,12.63.75,5.87,7.65,13.85,13.28,15.1,5.87,1.3,10.91-.12,14.32-5.44,1.85-2.89,4-4.58,7.62-3.06,1.39.59,3.1,1.11,4.05-.69.81-1.54,0-3-1-4.23-5.33-7.17-10.64-14.36-16-21.5-2.49-3.32-5.15-6.51-7.61-9.85-2.62-3.57-2-7.1,1.62-9.69,3.24-2.33,6.08-1.78,8.89,1.88,1.86,2.42,3.53,5,5.36,7.45,2.39,3.18,4.39,3.58,7.92,1.7,6.66-3.55,7.51-7.05,3.11-13-1-1.4-2.23-2.7-3.3-4.09-2.87-3.74-2.88-6.79-.06-9.29s6.41-1.9,9.58,1.94c1.95,2.36,3.74,4.86,5.55,7.34q9.69,13.26,19.35,26.55c2.93,4,2.79,6.4-.52,9.05s-5.87,2.28-9.12-1.23c-2.23-2.41-4.15-5.1-6.35-7.53-2.82-3.13-6.29-3.69-9.21-1.7-4,2.76-4.94,5.8-2.84,9.82a39.87,39.87,0,0,0,5.28,8.25c1.61,1.82,2.43,3.92.91,6.57-1.42,2.46-3.2,3.22-5.87,3.2-4.78,0-4.8.08-5.19,5.1-.1,1.32-.07,2.7-.92,3.77-5.2,6.58-15.29,14.93-26.64,11.84C360.07,702.67,347.41,690,346.92,674.59Z"/><path class="a" d="M576.59,692.57c-5.56-.12-8.26-5.13-5.82-9.22,1.78-3,4.36-5.47,6.38-8.33,2.87-4.07,2.59-6.27-.92-9.79-4.23-4.25-6.55-4.25-11.12,0-2.44,2.24-4.23,5-6.23,7.6-2.59,3.38-6.19,3.56-9,.75-3.18-3.17-3.24-6.9,0-9.52,7.06-5.75,11.24-13.89,17.14-20.6,3.31-3.78,6-8,9.14-12s5.4-4.33,8.84-1.72c3.24,2.46,3.67,5.47.95,9.13-1.7,2.27-3.84,4.2-5.65,6.4-2.41,2.93-2.38,4.62,0,7.52a29.28,29.28,0,0,0,2.76,2.81c3.84,3.5,6.53,3.32,9.92-.75,1.95-2.35,3.64-4.93,5.67-7.22,2.45-2.77,5.66-2.78,8.73-.29,2.77,2.25,3.39,5.16,1.35,8.13a76.14,76.14,0,0,1-7.11,8.56c-7.36,7.85-13.58,16.58-20.35,24.89C579.71,690.74,578.18,692.62,576.59,692.57Z"/><path class="a" d="M732.83,938.24a23.72,23.72,0,0,1-3.46-.18,7,7,0,0,1-5.8-7c0-2.7,2.11-4.58,5.82-5.09,3-.42,6.07-.88,9.12-1q17.72-1,35.43-1.83c3-.14,5.53.57,7.52,3.15,4.37,5.7,4.11,10.52-1.87,14.58C767.44,949.09,755,957,742.75,965c-2.25,1.47-4.43,1.86-6.6-.07s-2.81-6.11-1.37-8.45c1.17-1.9,3-3.1,4.81-4.39,4.07-3,4.87-5.47,3.31-9.51s-3.23-4.85-8.3-4.57C734.16,938,733.73,938.11,732.83,938.24Zm26-3.84c-.82.07-1.89.18-3,.25-2.57.19-3.32,1.79-2.82,4s2.22,3.14,4.41,2.3a11.71,11.71,0,0,0,3.21-2.08c1-.81,2.15-1.76,1.7-3.19S760.33,934.52,758.84,934.4Z"/><path class="a" d="M471.6,637.75c0,12-9.26,21-20.2,20.57a15.32,15.32,0,0,1-11.52-5.42,40.77,40.77,0,0,1-8.34-14,200.57,200.57,0,0,0-7.61-20.25,15.84,15.84,0,0,1-.89-2.47c-1-4,.25-6.83,3.62-8,3.76-1.27,6.77.17,8.31,4.15,3,7.74,5.94,15.5,8.88,23.27a22,22,0,0,0,4.64,7.84c1.73,1.79,3.57,3.5,6.28,2.29a7.1,7.1,0,0,0,4.34-6.1c.19-2-.47-3.89-.95-5.79-1.93-7.67-5.6-14.71-8-22.22-.79-2.5-1.67-5-1.41-7.69.28-2.89,1.62-5,4.57-5.68s4.69.91,5.93,3.1a32.61,32.61,0,0,1,2.51,6c2.79,8.73,7.26,16.88,9,26C471.11,635.12,471.43,636.84,471.6,637.75Z"/><path class="a" d="M234.94,970.49a60.34,60.34,0,0,1-3.75,13.81c-1.75,4.63-4.61,5.42-9.49,3.91-12.11-3.77-24.23-7.51-36.39-11.1-6.72-2-8.89-4.9-7.21-11.54a40.15,40.15,0,0,1,6.39-14.32c4.89-6.54,13.15-7.64,18.8-1.88,3.72,3.79,6.92,4.63,12.14,2.91C225.55,949,235.34,957.74,234.94,970.49Zm-17.49-7c-2.9.13-6.24,3.1-6.33,5.64-.09,2.21,4.73,5.51,8,5.48,2.66,0,4.4-2.28,4.21-5.46C223.12,965.74,220.66,963.36,217.45,963.5Zm-22.3-5.17a4.74,4.74,0,0,0-4.58,5.24c.24,2.59,2.68,4.29,5.72,4,2.7-.23,3.79-1.83,3.74-4.37C200,960.19,198,958.19,195.15,958.33Z"/><path class="a" d="M597.82,709.1a13.14,13.14,0,0,1,1.33-6.93c6.15-11.71,14.66-20.47,28.38-22.84,9-1.56,15.19,2.89,20.23,9.36a17.47,17.47,0,0,1,1.9,19.73c-5.5,10.8-14,18.23-25.76,21.69C609.4,734.36,596.62,719.84,597.82,709.1Zm41.23-9.25c.12-7-7.06-11.12-13.54-7.86-6.23,3.14-11.68,7.63-14.84,14.2-1.83,3.82-1.17,7.18,1.74,10.17s6,3.53,10.13,1.66a32.18,32.18,0,0,0,12.29-9.52C637,705.76,638.76,702.74,639.05,699.85Z"/><path class="a" d="M479.13,642.46c1.16-13.54,2.17-26.63,3.43-39.71.64-6.7,3.41-8.82,10-8.15,3.91.4,7.94.53,11.69,1.58,11.1,3.11,15.55,17,7.94,25.72-3.17,3.62-3.72,6.38-1.63,10.45,2.24,4.38,1.43,9.47,2.53,14.16.62,2.66-1.14,4.6-3.69,5.48-2.71.93-6.25-.7-7.8-3.46-1.36-2.41-1.18-5.08-1.25-7.7-.06-2.4.16-4.85-1-7.09s-2.66-3.76-5.11-3.37c-2.25.35-3,2.43-3.19,4.47-.29,3.27-.06,6.61-.61,9.82-.79,4.62-5.21,6.66-8.84,4.4C479.7,647.84,479,646,479.13,642.46Zm18.78-36c-2.55,0-4,2-4.11,5.52-.1,4,1.73,6.45,4.76,6.3,2.76-.13,4.77-2.57,4.83-5.83A5.75,5.75,0,0,0,497.91,606.44Z"/><path class="a" d="M336.22,722.83c-3.76-6.65-9.29-9.32-13.56-13.31-1.28-1.19-2.82-2.11-4-3.36-1.85-1.95-2.33-4.36-.74-6.6s4.2-2.3,6.52-1.22a29.71,29.71,0,0,1,5.5,3.56c9.34,7.27,18.61,14.61,27.93,21.9,4.55,3.55,5.68,6,4.16,9.2-1.78,3.76-6.37,5.66-11.24,4.32-7.18-2-14.69-2.55-21.67-5.38a5.51,5.51,0,0,0-5.77.45c.72,2.56,2.84,3.76,4.73,5.14q5.31,3.87,10.66,7.67a17.86,17.86,0,0,1,4.74,4.51,4.93,4.93,0,0,1-.07,6.12,5,5,0,0,1-6.45,1.62,11.74,11.74,0,0,1-3.3-2.13c-9.49-8.8-20.06-16.23-30.35-24-4.52-3.43-5.53-6-3.26-9.24,3.52-5,6.4-6.88,11.46-5.17C319.17,719.48,327.15,720.74,336.22,722.83Z"/><path class="a" d="M805.57,1013.73c-.06,13.56-8.73,20-21.19,15.9-3.47-1.15-6.37-1.17-9.15,1.2-4.12,3.52-9.4,4.52-14.19,6.6-2.69,1.17-5.12,1.06-6.76-1.84a5.37,5.37,0,0,1,1.74-7.5,102,102,0,0,1,9.27-4.87c1.75-.91,3.59-1.73,4.83-3.31s1.66-3.12.66-4.88a3.73,3.73,0,0,0-4.5-1.82c-3.18.81-6.29,1.88-9.48,2.63-4.17,1-6.84-.39-7.78-3.77s.49-6.43,4.3-7.68a96.22,96.22,0,0,1,10.85-2.42c10-2.08,20.08-4.19,30.13-6.2,4.38-.87,6.76.27,8.34,4.34C804.37,1004.58,806,1009.16,805.57,1013.73ZM790,1008c-4.75.14-8.26,2.61-8.19,5.76s3.28,5.76,6.8,5.56a6.06,6.06,0,0,0,6.06-6.32C794.64,1009.73,792.9,1007.87,790,1008Z"/><path class="a" d="M293.53,824.65c-2,.07-3.83-.8-5.7-1.4-2.08-.66-4.12-1.5-6.25-2-2.3-.51-4.48.06-5.58,2.36s.09,4.25,2,5.64a44.39,44.39,0,0,0,3.95,2.32,43.4,43.4,0,0,1,5.05,3c2.85,2.26,3.42,5,1.86,7.44-1.78,2.78-4.65,3.56-8,1.78-6-3.16-11.89-6.5-17.81-9.8q-9.15-5.1-18.28-10.29c-5.61-3.19-6.29-5.46-3.18-11.13,2.09-3.83,4.09-7.67,7.2-10.9,8.07-8.37,19-7.54,25.55,2.18.85,1.27,1.48,2.68,2.31,4,1.12,1.74,2.61,3.08,4.83,2.84,5-.53,9.41,1.76,14.1,2.67,2.91.56,5.69,1.41,5.44,5.27-.19,2.89-2.78,5.34-6.15,5.89C294.41,824.63,294,824.62,293.53,824.65Zm-26.27-9.14c.12-3.39-3.49-7.34-6.93-7.58A5.64,5.64,0,0,0,254.5,813c-.26,3,4.23,6.86,8.25,7C265.33,820.16,267.15,818.33,267.26,815.51Z"/><path class="a" d="M288,745.34c1.16.39,2.83.88,4.47,1.49,12.51,4.59,25,9.23,37.53,13.82,4.42,1.62,5.62,3.16,4.76,6.33-1,3.68-4.17,5.45-8.16,4.51-.85-.2-1.66-.57-2.48-.85-5.43-1.84-9.88.45-11.76,5.8-.71,2,.19,3.43,1.27,4.77,1.37,1.7,3.13,3.09,4.4,4.85,2,2.81,1.53,5.92-1,8.23-2.38,2.15-4.8,2.19-7.5-.57-3.35-3.43-6.26-7.29-9.49-10.84-6.33-7-12.79-13.78-19.12-20.74-5.43-6-3.47-10.08,2.27-15.67C284.41,745.29,285.67,745.18,288,745.34Zm11.43,16.11c-1.49.16-2.45.85-2.21,2.48.31,2.06,3.62,5,5.48,4.82a2.54,2.54,0,0,0,2.51-3.08C305,763.46,302,761.31,299.47,761.45Z"/><path class="a" d="M727.18,807.6c.08,2.14-1.25,3.81-2.89,5.36-4.92,4.64-9.86,9.27-14.72,14-5.47,5.32-10.84,10.75-16.3,16.08-3.18,3.1-4.73,3.32-7.27,1.3-2.89-2.29-3.77-5.72-1.8-8.71,1.3-2,3.19-3.56,4.78-5.36,2.7-3,2.88-5,.78-8.15-2.54-3.77-5.41-5.21-8.64-4.25-1.25.38-2.4,1.12-3.67,1.38a6.57,6.57,0,0,1-8.31-6.12c-.22-2.24.56-3.9,2.93-4.35,14.59-2.8,28.71-7.44,43.13-10.9A9.86,9.86,0,0,1,727.18,807.6Zm-22,3.21c-1.72.58-4,.58-5.67,2.1-1.44,1.27-2,2.85-1,4.57s2.86,1.8,4.52.93a9.57,9.57,0,0,0,4.47-5.31C708.21,811.26,707,810.87,705.17,810.81Z"/><path class="a" d="M204.11,1098.44c-10.82-1.27-19.5-2.36-28.19-3.26-3.7-.38-7.43-.38-11.14-.52-8.36-.32-10.91-3.33-10-11.48a61.18,61.18,0,0,1,2-11c3.14-10.38,14.72-14.4,24.42-7.22,3.79,2.8,6.6,4.06,11.13,2,4.38-2,9.42-1.76,14.23-2,2.68-.11,4.75,1.07,5.19,3.94a5,5,0,0,1-3.4,5.7,24.59,24.59,0,0,1-7.72,1.37,16.58,16.58,0,0,0-8.07,2.49,4.36,4.36,0,0,0-2.05,4.51c.28,2.17,1.75,2.86,3.64,3.07,3,.35,6.1.58,9.13,1,4.35.62,6.25,2.73,5.88,6.32S206.32,1098.6,204.11,1098.44Zm-30.23-14.21c3.38.26,5.16-1,5.5-4a6.69,6.69,0,0,0-6.57-7.42c-3.44-.18-7.15,2.94-7.3,6.16S167.83,1083.75,173.88,1084.23Z"/><path class="a" d="M188.4,1137.58c-9.43.55-18.78-1.25-28.22-1.06-5.49.11-7.52-2.06-7.79-7.5a65.84,65.84,0,0,1,.19-10.51c1-8.64,7.44-14.54,16.24-15.12,10-.66,17.76,4.16,20.23,12.19,1,3.18-.69,7.38,3.36,9.41,3.15,1.59,6.41.66,9.67.43,4.16-.3,6.59,2.22,6.5,6.34-.08,3.61-1.82,5.59-5.72,5.77C198.05,1137.74,193.22,1137.58,188.4,1137.58Zm-17.79-12.1c5.56.08,7.9-1.23,8-4.5.13-3.82-3.36-6.91-7.9-7-4.17-.07-7.2,2.78-7.14,6.72C163.63,1124.11,165.54,1125.41,170.61,1125.48Z"/><path class="a" d="M770.38,992.38c-3,.22-4.67-1.67-5.66-4.76-3.14-9.84-4.25-10.31-13.87-6.51-5.58,2.21-7.84,2-10-1.05-2.29-3.2-1.83-6.34,1.44-8.44a22,22,0,0,1,4.76-2.17,348.07,348.07,0,0,1,39.12-10.72c3.32-.74,5.79.76,6.74,3.76,2,6.22,3.72,12.54,5.19,18.9.7,3-1.35,5-4.13,5.79s-4.84,0-6-2.63-2-5.31-3-8-2.74-4.5-6-3.71c-3,.73-4.57,3.09-4.06,6.45.28,1.94,1,3.79,1.45,5.71C777.42,989.61,775.32,992.29,770.38,992.38Z"/><path class="a" d="M546.49,610.64c6.71.48,12.82,1.94,17.92,6.22,2.84,2.39,3.26,4.7,1.57,7.47-1.87,3.08-4.53,3.9-7.8,2.33-1-.47-1.83-1.2-2.8-1.71-9.13-4.82-18.18-1.19-21.55,8.69a38.87,38.87,0,0,0-1.48,5.73,13.73,13.73,0,0,0,7.48,15.29,33.88,33.88,0,0,1,4.64,2.4c2.23,1.67,2.31,4.18,1.56,6.58-.68,2.23-2.76,2.59-4.78,2.79a1.77,1.77,0,0,1-.65,0c-7.65-2.23-15.29-4.67-19.09-12.53-7.53-15.59,3.77-38.7,20.67-42.57C543.67,611,545.2,610.84,546.49,610.64Z"/><path class="a" d="M673.05,801.32a6.67,6.67,0,0,1-3.4,5.82c-2.33,1.34-4.19-.19-5.83-1.67a7.74,7.74,0,0,1-2-2.56c-1.93-4.46-4.93-8.25-7.51-12.3-3.83-6-3.18-8.48,2.67-12.31,11.15-7.31,23.1-13.34,34-21.09,3.56-2.53,6.51-2,9,1.75,3.32,5.13,6.26,10.51,9.17,15.88,1.48,2.75.42,5.13-2.08,6.79s-4.66.86-6.39-1.18-3.34-4.61-5.18-6.77c-2.41-2.82-4.08-3-6.75-1.15-2.45,1.71-3.05,4-1.53,6.88a36.31,36.31,0,0,0,2.76,3.64c2.52,3.57,2.22,7.26-.72,9.24s-5.66,1.15-8.27-2.37c-1.29-1.76-2.44-3.65-3.89-5.27-2.41-2.69-4.66-2.89-7.48-1-3.14,2.15-3.82,4.56-1.95,7.86,1,1.71,2.29,3.19,3.41,4.82A9.86,9.86,0,0,1,673.05,801.32Z"/><path class="a" d="M818.49,1119.9c0,4.73-1.77,7.56-6.25,8.88-13.65,4-27.35,7.88-41.07,11.68-2.81.78-5.78.85-7.44-2.35-1.39-2.68,0-6.57,3.21-8.42a26.87,26.87,0,0,1,5.53-2,6.52,6.52,0,0,0,5-6.17c.25-3.5-.66-6.62-4-8.34-1.94-1-4.14-1.42-6.13-2.31-3.52-1.57-4.89-4.39-3.73-7.3,1.06-2.66,3.52-3.69,7.18-2.56a311,311,0,0,0,38.93,9.33C816.21,1111.49,818.53,1114.34,818.49,1119.9Zm-26.16,3.88c2.44-.73,5.39-.84,6.15-3.93.43-1.75-4.28-3.62-7.63-3.18-2.38.31-3.43,1.64-3.19,4C788,1123.5,790,1124,792.33,1123.78Z"/><path class="a" d="M241.8,836.1a14.3,14.3,0,0,1-1.86,4.87,23.2,23.2,0,0,0-1.88,4.17c-.68,2.51-.3,4.82,2.29,6.19s5.07.59,6.76-2.07a51.38,51.38,0,0,0,2.21-4.75c2-4,4.53-5.19,7.78-3.6,3.54,1.72,4.5,5,2.51,8.75-.52,1-1.27,1.79-1.78,2.75-2.26,4.27-1.36,7,2.9,9,3.24,1.52,5.6.39,7.7-3.77.88-1.76,1.48-3.67,2.5-5.34,1.83-3,4.55-3.92,7.22-2.85s4.06,3.87,2.78,7.15a105.09,105.09,0,0,1-8.44,17.73c-2,3.17-3.89,3.51-7.92,1.61-5.54-2.62-11-5.44-16.44-8.21-7-3.55-14.09-7-21-10.73-5-2.63-5.62-4.79-2.65-9.44s5.07-9.69,7.73-14.45c2.13-3.81,5.32-4.34,8.06-1.84C241.68,832.64,241.86,834.31,241.8,836.1Z"/><path class="a" d="M727.32,854.45c0,10.59-4.71,17.08-13.63,19.43-5.34,1.41-9.8.16-13.9-3.52a25.14,25.14,0,0,1-8.12-14.62c-.73-4.09,1-6.44,4.74-7.3,3.44-.79,5.08.37,6.53,4.63a55,55,0,0,0,2,5.53c.85,1.82,2.13,3.52,4.43,3.32s3.9-1.78,4.74-4c1.19-3.16,1.08-6.48,1-9.74-.26-8.49,8.74-16.49,16.66-16.06,6.34.35,11.46,2.64,14.43,8.56a46.3,46.3,0,0,1,3.22,7.16,5.7,5.7,0,0,1-3.79,7.33c-2.89,1-5.08-.12-6.8-3.45-.8-1.55-1.34-3.25-2.25-4.73a4.79,4.79,0,0,0-4.89-2.63c-2.3.3-3.25,2-3.94,3.92C727,850.4,727.37,852.61,727.32,854.45Z"/><path class="a" d="M628.55,750.8c-2.57-.44-5-1.47-5.6-4.48s.56-5.54,3.42-7.07c6.76-3.63,12.77-8.36,18.82-13,4.83-3.7,9.91-7.11,14.34-11.37,3.63-3.49,6.31-3.25,9.38.59,3.67,4.6,7.19,9.35,10.64,14.13,2.27,3.16,2,6.14-.49,8.16s-5.55,1.74-8.22-.87c-1.55-1.51-2.7-3.42-4.11-5.08-2.48-2.88-5.05-3.26-8-1.26-2.76,1.85-3.16,3.91-1.13,6.55,1.19,1.55,2.8,2.83,3.78,4.49,1.93,3.24,1.09,7.14-1.59,8.72s-5.65.79-8-2.12c-6.77-8.25-6.78-8.27-15.14-1.71C634.19,748.35,632.15,750.8,628.55,750.8Z"/><path class="a" d="M194.75,1035c-.17.89-.42,2.18-.64,3.48-.78,4.7.44,6.54,4.9,7.44,4,.8,5.71-.45,6.75-5.08.43-1.91.35-3.94.77-5.85.8-3.59,3.54-5.82,6.36-5.42a6.07,6.07,0,0,1,4.84,7.35c-1.1,5.81-2.4,11.59-3.93,17.3-1,3.5-3,4.61-7.15,4.06-7.38-1-14.8-1.87-22.07-3.41-5.78-1.22-11.53-2.55-17.39-3.48s-7.62-3.22-6.78-9c.75-5.19,1.89-10.34,3.05-15.46.74-3.23,2.79-4.63,5.63-4.28a5.64,5.64,0,0,1,5.08,5.85c-.14,2.16-1,4.25-1.44,6.39-.77,3.78.6,6.12,4,7,2.93.76,5.27-.61,6.47-4a35.5,35.5,0,0,0,1-4.48c1-4.65,2.9-6.68,6-6.35S195.06,1030.07,194.75,1035Z"/><path class="a" d="M224.24,1007.79c-.06,6.29-1.41,11.06-5.27,14.78-2,1.9-4.24,3.26-7,1.25-2.54-1.85-3.24-4.47-1.8-7.53,1.1-2.35,3-4.36,2.93-7.2,0-2.53-.33-4.94-3-6.07s-4.75-.25-6.56,1.65c-2.56,2.7-4.92,5.6-7.59,8.19a14.76,14.76,0,0,1-18.16,2.31c-5.51-3.2-10.39-8.51-8.63-16.84.73-3.46,1.55-6.85,3.63-9.78,1.76-2.47,4.18-3.2,6.92-2s3.63,3.75,2.85,6.58c-.52,1.88-1.66,3.58-2.27,5.44a4.8,4.8,0,0,0,1.77,5.84c2,1.44,3.9.52,5.39-.77,2.81-2.43,5.43-5.1,8.08-7.72,5.88-5.82,12.59-5.45,19.46-2.35C221.47,996.52,224.67,1001.64,224.24,1007.79Z"/><path class="a" d="M760.44,1083c-.08-10.34,5.66-18.74,15.44-22a43,43,0,0,1,21.94-1.65c12.93,2.32,19.61,13.67,19.72,26.49a5.93,5.93,0,0,1-6.4,6c-3.25-.14-5.33-2.5-5.4-6.13-.21-11.12-5.52-16.15-16.65-15.64a30.23,30.23,0,0,0-5.82.89c-8.74,2.18-12.65,8.27-11,17.15.31,1.68,1.25,3.27.25,5-2,3.54-6.67,3.83-9.31.46C760.76,1090.49,760.43,1086.78,760.44,1083Z"/><path class="a" d="M202.63,924.48c1.11,0,2.43,0,3.74,0,1.5-.07,3.36.19,3.85-1.69.43-1.64-.78-2.94-1.95-3.92-2.17-1.85-4.46-3.55-6.72-5.29a8.47,8.47,0,0,1-3.15-4.1c-.87-2.68.2-6.45,2.29-7.71,2.57-1.54,4.77-.27,6.52,1.43,5,4.9,10.14,9.74,14.7,15a19.76,19.76,0,0,0,9,6.23c3.12,1,6.25,2,9.33,3.2a16,16,0,0,1,4.06,2.1,5.72,5.72,0,0,1,1.69,7.6,5.32,5.32,0,0,1-6.81,2.42c-3.72-1.29-7.46-2.59-11.06-4.19a16.37,16.37,0,0,0-9.59-1.62c-6.49,1.16-13.15.31-19.58,1.91a9.7,9.7,0,0,1-1.29.23c-4.44.45-7.13-.68-7.74-3.22-.71-3,2.45-7.5,6-8.45C198.05,923.85,200.24,924.34,202.63,924.48Z"/><path class="a" d="M254,902.28c-3.91-2.56-9.34-4.26-14.43-6.7-4.72-2.27-9.42-4.59-14.21-6.69-4.46-2-5.8-1.41-8.52,2.88-.23.37-.37.8-.61,1.15-2.1,3.09-5,4-7.81,2.63a5.66,5.66,0,0,1-2.63-7.83c3.7-7,6.48-14.32,9.86-21.41,1-2,2.36-3.73,4.84-3.92,3.73-.29,8.15,2.81,5.88,8.18-2.41,5.71-2,6.26,3.72,8.72,6.79,3,13.32,6.53,20.6,8.39,2.9.75,5.62,2.4,8.28,3.9,3.3,1.86,4.13,4.09,2.95,7S258.27,902.8,254,902.28Z"/><path class="a" d="M766.84,889.45c0,2.77-1.07,4.37-3.05,5.2a5.56,5.56,0,0,1-6.17-.72,15.13,15.13,0,0,1-2.35-3.11c-2.86-4.26-3.74-4.65-8.56-2.6-9.07,3.86-18.07,7.86-27.08,11.83-4.76,2.1-7.49,1.59-8.9-1.76-1.52-3.64,0-7,4.37-8.83,6.27-2.59,12.7-4.81,19-7.3a99.26,99.26,0,0,0,9.61-4.27c3.88-2,4.24-3.1,3.23-7.39-.24-1.06-.73-2.08-.86-3.15a4.59,4.59,0,0,1,2.7-4.83,4.89,4.89,0,0,1,5.55.3,11.08,11.08,0,0,1,3.67,5.35,135,135,0,0,0,7.77,18.09A18.1,18.1,0,0,1,766.84,889.45Z"/><path class="a" d="M764,1055.56c-4.68.07-7.28-1.62-7.82-4.54-.56-3.09,1.32-6.27,5.23-7.24a174.74,174.74,0,0,1,17.32-3.2c8.22-1.16,16.39-2.47,24.49-4.27,4.74-1,7.35.47,7.92,4.24.62,4.11-1.45,6.82-6.11,7.62-10.53,1.79-21.09,3.43-31.62,5.25C769.93,1054,766.57,1055,764,1055.56Z"/><path class="a" d="M310,803.92a6.33,6.33,0,0,1-3.06,5.47c-2.06,1.41-4.13,1.05-6.13-.21q-13.55-8.5-27.08-17c-2.59-1.62-5.25-3.13-7.84-4.76-4.91-3.07-6.05-5.53-4.18-8.81,2.17-3.82,5.71-4.23,10.74-1.06,3.88,2.44,7.6,5.13,11.48,7.57,7.2,4.55,14.47,9,21.7,13.5C307.7,799.88,309.9,801.06,310,803.92Z"/><path d="M361.2,2077.27h28.09V2089H343.61v-63.27H361.2Z"/><path d="M476.06,2057.34a29.12,29.12,0,0,1-2.83,12.77,30.86,30.86,0,0,1-8,10.27,37.86,37.86,0,0,1-12.4,6.84,53.8,53.8,0,0,1-32.23,0,38.06,38.06,0,0,1-12.46-6.84,30.79,30.79,0,0,1-8-10.27,30.13,30.13,0,0,1,0-25.54,30.62,30.62,0,0,1,8-10.25,38.38,38.38,0,0,1,12.46-6.81,53.39,53.39,0,0,1,32.23,0,38.23,38.23,0,0,1,12.4,6.84,30.49,30.49,0,0,1,8,10.25A29,29,0,0,1,476.06,2057.34Zm-18,0a23.26,23.26,0,0,0-1.45-8.45,17.35,17.35,0,0,0-4.19-6.36,18.19,18.19,0,0,0-6.69-4,26.92,26.92,0,0,0-9-1.39,27.34,27.34,0,0,0-9.07,1.39,18.11,18.11,0,0,0-6.71,4,17.35,17.35,0,0,0-4.19,6.36,25.3,25.3,0,0,0,0,16.94,17.27,17.27,0,0,0,4.19,6.36,18.09,18.09,0,0,0,6.71,4,27.89,27.89,0,0,0,9.07,1.36,27.46,27.46,0,0,0,9-1.36,18.17,18.17,0,0,0,6.69-4,17.27,17.27,0,0,0,4.19-6.36A23.33,23.33,0,0,0,458.06,2057.34Z"/><path d="M482.93,2025.73h14.15a7.21,7.21,0,0,1,3.74.87,4.88,4.88,0,0,1,2.09,2.3l14.67,33.87c.65,1.48,1.32,3.08,2,4.82s1.31,3.56,1.9,5.47a53.83,53.83,0,0,1,1.69-5.47c.64-1.74,1.27-3.34,1.9-4.82l14.56-33.87a5.23,5.23,0,0,1,2-2.2,6.69,6.69,0,0,1,3.7-1h14.25L529.23,2089H513.31Z"/><path d="M622.45,2025.73V2037H591.34v14.76h23.83v10.86H591.34v15.07h31.11V2089H573.66v-63.27Z"/><path d="M72.54,1900.22v8.1l-19.31-14v11.5l16.08,11.69v8.13l-16.08-11.69v17.67l-11-8v-45.4Z"/><path d="M116.85,1977.82l-8.46-6.15a10,10,0,0,1-2.34-2.34,8.52,8.52,0,0,1-1.28-2.56l-2.78-9.94-17.89-13-2.78,5.9a1.28,1.28,0,0,1-1.25.66,4.13,4.13,0,0,1-2.3-1l-8.52-6.2,18.21-32.17,11.18,8.12ZM86.62,1938.5l12.86,9.34-4.33-15.58-1-3.51c-.37-1.34-.75-2.77-1.11-4.28-.35,1-.7,1.93-1.07,2.75a21.53,21.53,0,0,1-1,2Z"/><path d="M132.61,1989.27l-11-8v-45.4l11,8Z"/><path d="M175.5,1975v8.35l-13.24-9.62v37l-10.92-7.93v-37.05l-13.24-9.62v-8.36Z"/><path d="M221.1,2053.56l-11-8v-19.19L191,2012.5v19.19l-11-8v-45.4l11,8v19l19.12,13.89v-19l11,8Z"/><path d="M807.41,2030l-11.61,9.11v-21l-20.21,15.87v21L764,2064.09v-49.75l11.61-9.12V2026l20.21-15.88v-20.79l11.61-9.12Z"/><path d="M864.71,1960.1a39.51,39.51,0,0,1-1.86,11.5,62.86,62.86,0,0,1-5.24,12.19,75.22,75.22,0,0,1-8.14,11.78,71.05,71.05,0,0,1-10.57,10.24,41.68,41.68,0,0,1-10.59,6.37c-3.19,1.2-5.91,1.55-8.18,1a7.92,7.92,0,0,1-5.26-4,17,17,0,0,1-1.86-8.57,39.63,39.63,0,0,1,1.86-11.51,62.54,62.54,0,0,1,5.26-12.18,76.07,76.07,0,0,1,8.18-11.79A70.75,70.75,0,0,1,838.9,1955a41,41,0,0,1,10.57-6.34,14.59,14.59,0,0,1,8.14-1,7.93,7.93,0,0,1,5.24,4A16.88,16.88,0,0,1,864.71,1960.1Zm-11.81,9.28a15,15,0,0,0-1-5.89,4.84,4.84,0,0,0-2.75-2.85,6.52,6.52,0,0,0-4.39.31,22.38,22.38,0,0,0-5.9,3.54,39.79,39.79,0,0,0-6,5.77,37.3,37.3,0,0,0-4.41,6.61,34.25,34.25,0,0,0-2.75,7.16,29.79,29.79,0,0,0-.95,7.39,15.24,15.24,0,0,0,.95,5.92,4.87,4.87,0,0,0,2.75,2.85,6.43,6.43,0,0,0,4.41-.34,23.35,23.35,0,0,0,6-3.6,39.45,39.45,0,0,0,5.9-5.71,36.54,36.54,0,0,0,4.39-6.57,33.91,33.91,0,0,0,2.75-7.16A29.53,29.53,0,0,0,852.9,1969.38Z"/><path d="M881.79,1955v16.63l-11.55,9.06V1930.9l17.56-13.78a47.13,47.13,0,0,1,9-5.85,12.6,12.6,0,0,1,6.21-1.45,4.49,4.49,0,0,1,3.61,2.33,11.28,11.28,0,0,1,1.16,5.51,27.33,27.33,0,0,1-1.2,7.77,36.18,36.18,0,0,1-3.65,8.19,53.36,53.36,0,0,1-6.23,8.36,70.63,70.63,0,0,1-8.93,8.26Zm0-8.71,6-4.72a23.85,23.85,0,0,0,6.48-7.24,15.91,15.91,0,0,0,2-7.57,6,6,0,0,0-.51-2.7,2.1,2.1,0,0,0-1.55-1.19,4.62,4.62,0,0,0-2.63.51,18.32,18.32,0,0,0-3.77,2.42l-6,4.72Z"/><path d="M945.85,1871.54v8.88l-20.42,16v11.61l15.64-12.28v8.54l-15.64,12.28v11.85l20.42-16v8.88l-32,25.15v-49.75Z"/><path class="e" d="M465.15,1838.35h13.28a3.36,3.36,0,0,0,1.81.59,31.65,31.65,0,0,1,8.66,2.52c1.57.72,2.63,2.81,4.16,2.64s3.11-1.59,4.76-2.26c8.49-3.43,17.25-3.34,26.12-2s17,4.74,25.53,7.06a8.58,8.58,0,0,1,3.29,2.29,35.31,35.31,0,0,1,2.91,3.52,1.16,1.16,0,0,0,1.43.35c1.51-.45,2.24.21,2.66,1.7q7.43,26.2,14.93,52.39c1.23,4.29,2.26,8.64,3.8,12.84v1.62a10.9,10.9,0,0,1-5.83.86c-1.19-.09-2.37-.2-3.55-.26l-39.93-2.12q-12.45-.66-24.9-1.34a7.26,7.26,0,0,0-5.31,1.44,8.49,8.49,0,0,1-11.32-.37,36.27,36.27,0,0,1-2.58-2.68,2.48,2.48,0,0,0-2.27-.86c-23.58,1.61-47.14,3.43-70.74,4.79a5.5,5.5,0,0,1-4.55-1.41V1917a10.62,10.62,0,0,0,.82-3.09q7.26-30.09,14.48-60.19c.63-2.6.61-2.71,3.29-2.51a4.17,4.17,0,0,0,4.23-1.91c.8-1.21,1.88-2.22,2.77-3.39,1.12-1.47,3-1.33,4.62-1.59,6.88-1,13.53-3.16,20.34-4.59C460.42,1839.28,462.88,1839.29,465.15,1838.35Z"/><path d="M465.15,1838.35h13.28a3.36,3.36,0,0,0,1.81.59,31.65,31.65,0,0,1,8.66,2.52c1.57.72,2.63,2.81,4.16,2.64s3.11-1.59,4.76-2.26c8.49-3.43,17.25-3.34,26.12-2s17,4.74,25.53,7.06a8.58,8.58,0,0,1,3.29,2.29,35.31,35.31,0,0,1,2.91,3.52,1.16,1.16,0,0,0,1.43.35c1.51-.45,2.24.21,2.66,1.7q7.43,26.2,14.93,52.39c1.23,4.29,2.26,8.64,3.8,12.84v1.62a10.9,10.9,0,0,1-5.83.86c-1.19-.09-2.37-.2-3.55-.26l-39.93-2.12q-12.45-.66-24.9-1.34a7.26,7.26,0,0,0-5.31,1.44,8.49,8.49,0,0,1-11.32-.37,36.27,36.27,0,0,1-2.58-2.68,2.48,2.48,0,0,0-2.27-.86c-23.58,1.61-47.14,3.43-70.74,4.79a5.5,5.5,0,0,1-4.55-1.41V1917a10.62,10.62,0,0,0,.82-3.09q7.26-30.09,14.48-60.19c.63-2.6.61-2.71,3.29-2.51a4.17,4.17,0,0,0,4.23-1.91c.8-1.21,1.88-2.22,2.77-3.39,1.12-1.47,3-1.33,4.62-1.59,6.88-1,13.53-3.16,20.34-4.59C460.42,1839.28,462.88,1839.29,465.15,1838.35Zm26.44,71c-.47-.12-.95-.21-1.41-.36a63.91,63.91,0,0,0-24.86-3.25,230.08,230.08,0,0,0-24.55,3c-6.08,1.06-12,2.91-18.29,2.86-2.18,0-3.63,1.2-5.29,2.26s-2.15,3.39-3.85,4.75a47.76,47.76,0,0,0,7.06.21c19.18-.94,38.31-2.6,57.44-4.32,2.76-.24,5.52-.81,8.27.43a3.12,3.12,0,0,0,3.79-1,8.7,8.7,0,0,1,1.73-1.46c1.73-1.18,3.08-1,4.36.64.79,1,1.45,2.15,2.18,3.21a1.91,1.91,0,0,0,2.68.75,6.11,6.11,0,0,1,4.21-.61c6.61.69,13.25.82,19.87,1.18,14.06.76,28.12,1.46,42.18,2.18,2,.1,3.93.17,5.9.26-.79-.77-1.33-1.46-1-2.54,0-.15-.1-.43-.23-.57-1.67-1.62-3.33-3.25-5.72-3.81s-4.61-1.14-6.88-1.79c-7.87-2.27-15.62-4.94-23.6-6.86-14-3.39-27.37-1.08-40.55,4.59a13.63,13.63,0,0,1,2.58,1.78h0a3,3,0,0,0,3.11,2.21c12.29.5,24.57,1.09,36.86,1.65l31.21,1.43c.73,0,1.57-.09,2.16.88l-71.32-3.62a3.08,3.08,0,0,0,1.27,1.08c.47.28,1.36.36,1,1.15s-1,.41-1.6.28a3.64,3.64,0,0,1-2.08-1.46c-.62-.82-1.18-1.69-1.85-2.45a4,4,0,0,0-5.27-.8,11.15,11.15,0,0,0-2,1.62,4.71,4.71,0,0,1-3.54,1.3c-.49,0-1,0-1.19-.58s.49-.7.89-1c-19.54-.69-38.78,2.25-58.2,3.26.21-.43.51-.35.76-.36,6.95-.35,13.86-1.19,20.78-1.83,11.88-1.09,23.74-2.48,35.69-1.36,2.25.21,4.11-.11,5.62-1.93a6.17,6.17,0,0,1,1.62-1l2.27-.41c-5.81-4.86-21.09-6.77-34-4.33a5.11,5.11,0,0,0,2.27,0,54,54,0,0,1,15,.16A47.4,47.4,0,0,1,491.59,1909.39Zm1.76-3.06c0-.54,0-1,0-1.4q-.84-29-1.67-58.09a3,3,0,0,0-1.17-2.35,17.65,17.65,0,0,0-8.23-3.54c-9.12-1.83-18.14-1-27.11,1.12-5.88,1.38-11.68,3.14-17.68,3.94-1.35.18-1.9.6-2.12,2-1.59,9.64-3.54,19.2-5.7,28.72-2.43,10.67-5,21.32-7.51,32-.31,1.29.08,1.49,1.21,1.34,1.71-.21,3.44-.29,5.14-.55,8-1.21,15.77-3.57,23.7-5.17C466,1901.5,479.76,1900.15,493.35,1906.33Zm20.92-65.75c-6.94,0-13.24,1.11-19.09,4.3a2.65,2.65,0,0,0-1.59,2.78q.9,28.23,1.68,56.45c.09,3,.07,3,2.9,2,9.31-3.42,18.82-5.52,28.83-4.57,7.13.67,14,2.61,20.79,4.67,5.06,1.53,10.11,3,15.16,4.6,1,.31,1.43.18,1.06-1-.28-.93-.38-1.9-.61-2.85q-6.89-28.7-13.75-57.4A1.88,1.88,0,0,0,548,1848c-3.87-1-7.67-2.21-11.46-3.46A74.23,74.23,0,0,0,514.27,1840.58Zm-80.82,8.16c-.72-.12-.95.29-1.22.71a14.93,14.93,0,0,1-3.29,3.48,3.56,3.56,0,0,0-1.39,2.17q-6.71,29.31-13.43,58.6c-.08.34-.28.69,0,1.12a6.69,6.69,0,0,1,2.92-2.64,7.41,7.41,0,0,0,4-5.49c3.61-15.42,7.49-30.78,10.3-46.38Q432.39,1854.52,433.45,1848.74Zm118.19,2a3.64,3.64,0,0,0,0,.48c4.7,19.87,9.76,39.66,14.21,59.59.08.36.16.9.4,1a22.15,22.15,0,0,1,5.16,2.77c-.22-.95-.31-1.43-.43-1.89-4.78-17.91-9.62-35.8-14.29-53.74C555.85,1855.63,554.6,1852.73,551.64,1850.76Z"/><path d="M566.05,1913.85c-22.61-2.26-45.18-5.32-68.06-3.93a42.93,42.93,0,0,1,11.3-4.19,59.64,59.64,0,0,1,28.84.63c9,2.35,18,4.75,27,7.14A6.72,6.72,0,0,1,566.05,1913.85Z"/><path d="M424.28,1913.47l15.25-1.52c8.9-.89,17.76-2.16,26.71-2.53a97.1,97.1,0,0,1,19.64,1C465.23,1909.61,444.76,1912,424.28,1913.47Z"/><path d="M487.08,1909.15c-16.73-2.61-33.32-.17-49.95.9,5.71-.69,11.42-1.36,17.12-2.08a120.75,120.75,0,0,1,24.19-.62A39.63,39.63,0,0,1,487.08,1909.15Z"/><path d="M497.61,1910.91c4.67.31,9.35.65,14,.91q23.32,1.32,46.66,2.57c3.11.17,6.22.29,9.4.44-.35.49-.78.29-1.13.27q-17.84-.9-35.68-1.84c-9.42-.49-18.84-.93-28.26-1.46-1.69-.09-3.47.1-5-.89Z"/><path d="M431.32,1851.29q-5.38,29.48-13.12,58.43C422.43,1890.21,427.13,1870.81,431.32,1851.29Z"/><path d="M416.57,1909.61q6.19-27.33,12.41-54.66l.56.13-12.42,54.7Z"/><path d="M555.65,1856.76c.67,2.64,1.35,5.28,2,7.92q5.69,22.83,11.33,45.65c.11.46.64,1.21,0,1.41-.77.26-.81-.62-.95-1.17q-6.39-26.73-12.79-53.44a.82.82,0,0,1,.05-.3Z"/><path d="M442,1865.16a35.65,35.65,0,0,0,4.15-1.19c1.78-.6,3.55-1.24,5.33-1.87a83.35,83.35,0,0,1,10.94-3.38c.38-.07.77-.15,1.15-.2.09,0,.46-.07.06,0s-.08,0,0,0a4.87,4.87,0,0,1,.55-.06,16.71,16.71,0,0,1,2.55.06c1.23.09,2.46.19,3.68.33l.74.08.38,0,.16,0c.27,0-.15,0-.2,0,.44.07.9.13,1.34.21a21,21,0,0,1,3.9,1l.36.14c.28.11-.38-.17-.27-.11l.19.08.62.31a8.61,8.61,0,0,1,1,.65l.24.17.1.08c.27.2-.17-.13-.22-.18l.47.38.94.78a27.21,27.21,0,0,0,2.84,2l.84.48a1.94,1.94,0,1,0,2-3.35c-.54-.3-1.06-.62-1.58-1l-.65-.45-.3-.22-.12-.1.19.15c-.77-.61-1.52-1.25-2.3-1.85a14.78,14.78,0,0,0-6.07-2.55,56,56,0,0,0-6.2-.84c-1.21-.11-2.44-.23-3.65-.26a14.07,14.07,0,0,0-2.43.21,58.45,58.45,0,0,0-10.76,3.07c-3.35,1.18-6.68,2.52-10.13,3.4l-.89.2a2,2,0,0,0-1.35,2.39,2,2,0,0,0,2.39,1.36Z"/><path d="M439.76,1876.82a43.43,43.43,0,0,0,9.6-3.42l2.4-1.06,1.27-.54.23-.1c-.51.22-.11,0,0,0l.69-.28a40.57,40.57,0,0,1,4.79-1.68,20.9,20.9,0,0,1,2.32-.51l.27,0c.26,0-.54.06-.15,0l.51-.06c.37,0,.75,0,1.12,0s.76,0,1.14.05l.28,0c.17,0,.48.14-.06,0,.22.06.46.08.68.12a19.67,19.67,0,0,1,2.37.62c.37.12.74.26,1.11.4l.61.24c.13.06.38.21-.07,0l.39.17c.8.35,1.58.73,2.36,1.13,1.57.79,3.11,1.65,4.67,2.47,3.36,1.78,7,3.55,10.88,3.56a1.95,1.95,0,0,0,0-3.89,10.88,10.88,0,0,1-1.14-.06l-.21,0c-.39,0,.5.08.1,0l-.62-.11a16.66,16.66,0,0,1-2.2-.61c-.39-.14-.78-.28-1.16-.44l-.21-.09c.55.22.16.07,0,0l-.63-.29c-.76-.34-1.51-.71-2.24-1.1a90.9,90.9,0,0,0-9.76-4.79,20.47,20.47,0,0,0-5.25-1.22,16.36,16.36,0,0,0-4.93.41,54.43,54.43,0,0,0-10.08,3.71c-.91.4-1.82.81-2.74,1.2-.22.1-.46.18-.67.29.49-.25.13-.05,0,0l-.33.14-1.33.53a26.64,26.64,0,0,1-5.09,1.53,2,2,0,0,0-1.36,2.39,2,2,0,0,0,2.39,1.36Z"/><path d="M439.76,1892.36a41.05,41.05,0,0,0,9.56-3.87c1.44-.76,2.88-1.53,4.34-2.25.71-.35,1.44-.7,2.17-1l-.08,0,.22-.09.55-.22c.38-.15.77-.29,1.16-.42a21.57,21.57,0,0,1,2.26-.63l1.09-.2c.05,0,.45-.07.09,0h.09c.22,0,.43,0,.65-.06a14.55,14.55,0,0,1,2.47,0,5.32,5.32,0,0,1,.56.06c.05,0,.3,0,.32,0s-.42-.06-.12,0c.48.07,1,.14,1.44.23a62.11,62.11,0,0,1,10.22,2.73c.82.29,1.62.6,2.42.92l.61.25-.17-.07.33.14,1,.47a16.37,16.37,0,0,1,2.89,1.61,1.95,1.95,0,0,0,2.65-.7,2,2,0,0,0-.69-2.66,15.75,15.75,0,0,0-2.56-1.45c-1.42-.68-2.88-1.28-4.35-1.84a64.22,64.22,0,0,0-10.17-2.93,31.82,31.82,0,0,0-5.58-.73,19.25,19.25,0,0,0-5.12.67,44.64,44.64,0,0,0-9.28,4c-1.65.87-3.31,1.74-5,2.51l-.68.3c-.17.07-.2,0,.12,0a1.43,1.43,0,0,0-.34.14c-.46.19-.92.36-1.39.53a26,26,0,0,1-2.74.79,1.94,1.94,0,0,0,1,3.75Z"/><path d="M498.51,1859.13l.78-.34-.19.08.22-.09.52-.21c.65-.26,1.31-.5,2-.73q2.3-.79,4.64-1.42,2.58-.7,5.22-1.19c.39-.08.79-.15,1.19-.21l.64-.1c.17,0,1-.13.33-.05.83-.1,1.66-.2,2.49-.25s1.56-.08,2.34-.07c.37,0,.73,0,1.1,0l.52,0c.19,0,.93.14.16,0a14.24,14.24,0,0,1,1.83.41l.4.15c.16,0,.38.2-.2-.09l.18.08c.52.24,1,.51,1.55.76a76.45,76.45,0,0,0,12.43,4.64c2.81.76,5.65,1.29,8.51,1.81a2,2,0,0,0,2.39-1.35,2,2,0,0,0-1.36-2.39c-2.5-.46-5-.91-7.48-1.55q-2.76-.7-5.46-1.64c-1-.35-2-.72-3-1.12l-.79-.32-.4-.16c-.46-.19.39.16-.08,0l-1.78-.79a22.62,22.62,0,0,0-5-2,21.46,21.46,0,0,0-4.8-.32,52.21,52.21,0,0,0-10.76,1.69,57.17,57.17,0,0,0-10,3.41,2,2,0,0,0-.69,2.66,2,2,0,0,0,2.65.69Z"/><path d="M503.18,1872.7c.08-.11.51-.64.12-.18.11-.14.22-.28.34-.41a9.26,9.26,0,0,1,.81-.85l.39-.35.23-.18c.15-.13.29-.12-.07,0a8.72,8.72,0,0,0,1-.67c.3-.18.61-.36.93-.52l.53-.26c.15-.07.74-.29.19-.09.72-.25,1.42-.53,2.16-.72.37-.09.75-.17,1.12-.24l.54-.1.3,0c.19,0-.49.06,0,0A20.39,20.39,0,0,1,514,1868a25.8,25.8,0,0,1,2.79.16l.31,0c.51.06-.43-.07.08,0l.6.09q.77.12,1.5.27c2,.39,3.88.91,5.8,1.44a46.86,46.86,0,0,1,4.52,1.33l.44.17c-.61-.23-.1,0,0,0l.93.43c.65.3,1.28.62,1.91.94,1.29.66,2.58,1.33,3.89,1.94,2.88,1.35,6.23,2.79,9.46,2a1.94,1.94,0,0,0-1-3.75l-.4.09c-.28.06.26,0,.26,0a1.1,1.1,0,0,0-.25,0,6.32,6.32,0,0,1-.87,0l-.4,0c-.16,0-.42-.08.19,0l-.18,0c-.32-.05-.64-.12-1-.19a19.79,19.79,0,0,1-2-.63l-.91-.37c.6.24,0,0-.15-.07l-.57-.25c-2.73-1.26-5.34-2.78-8.13-3.92a43.69,43.69,0,0,0-4.49-1.34c-1.92-.53-3.84-1.06-5.79-1.46a26.85,26.85,0,0,0-11.32-.26,15.37,15.37,0,0,0-9.5,6.1,2,2,0,0,0,.69,2.66,2,2,0,0,0,2.66-.7Z"/><path d="M503,1887.76a5,5,0,0,1,0-1.09,2.64,2.64,0,0,0,0-.29s-.08.5,0,.19.08-.37.13-.55a2.76,2.76,0,0,0,.18-.53s-.2.43-.06.15l.13-.26a9,9,0,0,1,.58-.93c.23-.33-.23.27-.05.07l.19-.23.36-.39.39-.37c.1-.09.43-.28.46-.39,0,.17-.31.24-.05,0l.24-.18.46-.29c.33-.2.67-.38,1-.55.05,0,.42-.15.1-.05s.05,0,.1,0l.57-.21c.44-.14.89-.27,1.34-.37l.72-.15.29,0,.17,0c-.33,0,.15,0,.17,0l.29,0,.73,0a23.42,23.42,0,0,1,2.78,0c.47,0,.94.07,1.41.13l.37,0c.25,0,.08-.07-.07,0,.16-.06.57.09.74.11,1.9.3,3.77.71,5.65,1.12,1.59.34,3.21.61,4.78,1.06,3,.86,5.8,2.12,8.69,3.19a39.9,39.9,0,0,0,5,1.55,16.32,16.32,0,0,0,5,.47,2,2,0,0,0,1.94-1.94,2,2,0,0,0-1.94-2,11.12,11.12,0,0,1-2.08,0l-.48,0c-.15,0-.43-.08.13,0l-.22,0c-.39-.06-.78-.14-1.17-.22a37.42,37.42,0,0,1-4.6-1.39c-3-1.07-5.91-2.39-9-3.3-1.57-.48-3.2-.75-4.8-1.09-1.93-.42-3.85-.85-5.8-1.16-4-.64-8.25-.87-12.06.71-3.61,1.51-7.23,5-6.66,9.29a2.17,2.17,0,0,0,.57,1.37,2,2,0,0,0,1.38.57c.93,0,2.08-.86,1.94-1.94Z"/></svg>